# xmcd
#
# Track frame offsets:
#	182
#	19187
#	40917
#	64060
#	85842
#	104975
#	123980
#	150470
#	174892
#	195090
#
# Disc length: 2833 seconds
#
# Revision: 11
# Processed by: cddbd v1.5.2PL0 Copyright (c) Steve Scherf et al.
# Submitted via: EasyCDDAExtractor 15.3.0.1
#
DISCID=760b0f0a
DTITLE=Myriam Hernandez - Myriam Hernandez 3
DYEAR=1994
DGENRE=Latin
TTITLE0=Ese Hombre
TTITLE1=Y Vete Ya
TTITLE2=No Hace Falta Mas Que Dos
TTITLE3=Inevitable
TTITLE4=Ayudame
TTITLE5=Te Extraño
TTITLE6=Sentimental
TTITLE7=Llorare
TTITLE8=Lo Mejor Que Me Ha Pasado
TTITLE9=Por Siempre Juntos
EXTD=
EXTT0=
EXTT1=
EXTT2=
EXTT3=
EXTT4=
EXTT5=
EXTT6=
EXTT7=
EXTT8=
EXTT9=
PLAYORDER=
